<mxfile>
    <diagram id="JGUHg2QzUk_EttTFL9CW" name="ページ1">
        <mxGraphModel dx="1101" dy="583" grid="1" gridSize="10" guides="1" tooltips="1" connect="1" arrows="1" fold="1" page="1" pageScale="1" pageWidth="827" pageHeight="1169" background="none" math="0" shadow="0">
            <root>
                <mxCell id="0"/>
                <mxCell id="1" parent="0"/>
                <mxCell id="50" value="" style="rounded=0;whiteSpace=wrap;html=1;sketch=0;fillColor=#FFFFFF;strokeColor=none;" vertex="1" parent="1">
                    <mxGeometry x="30" width="650" height="540" as="geometry"/>
                </mxCell>
                <mxCell id="43" value="都道府県" style="text;html=1;strokeColor=#001DBC;fillColor=#0050ef;align=left;verticalAlign=middle;whiteSpace=wrap;rounded=0;fontStyle=0;fontColor=#ffffff;" parent="1" vertex="1">
                    <mxGeometry x="610" y="370" width="50" height="20" as="geometry"/>
                </mxCell>
                <mxCell id="15" value="都道府県" style="text;html=1;strokeColor=#001DBC;fillColor=#0050ef;align=left;verticalAlign=middle;whiteSpace=wrap;rounded=0;fontStyle=0;fontColor=#ffffff;" parent="1" vertex="1">
                    <mxGeometry x="180" y="100" width="50" height="20" as="geometry"/>
                </mxCell>
                <mxCell id="37" value="市町村" style="text;html=1;strokeColor=none;align=left;verticalAlign=middle;whiteSpace=wrap;rounded=0;fontStyle=0;fillColor=#008A00;fontColor=#FFFFFF;" parent="1" vertex="1">
                    <mxGeometry x="620" y="30" width="40" height="20" as="geometry"/>
                </mxCell>
                <mxCell id="14" value="市町村" style="text;html=1;strokeColor=#2D7600;align=left;verticalAlign=middle;whiteSpace=wrap;rounded=0;fontStyle=0;fontColor=#ffffff;fillColor=#008A00;" parent="1" vertex="1">
                    <mxGeometry x="190" y="20" width="40" height="20" as="geometry"/>
                </mxCell>
                <mxCell id="39" value="児童福祉法" style="text;html=1;strokeColor=#001DBC;fillColor=#0050ef;align=center;verticalAlign=middle;whiteSpace=wrap;rounded=0;fontColor=#ffffff;" parent="1" vertex="1">
                    <mxGeometry x="450" y="370" width="70" height="20" as="geometry"/>
                </mxCell>
                <mxCell id="36" value="児童福祉法" style="text;html=1;strokeColor=#001DBC;fillColor=#0050ef;align=center;verticalAlign=middle;whiteSpace=wrap;rounded=0;fontColor=#ffffff;fontStyle=0" parent="1" vertex="1">
                    <mxGeometry x="450" y="30" width="70" height="20" as="geometry"/>
                </mxCell>
                <mxCell id="11" value="障害者自立支援法" style="text;html=1;strokeColor=#005700;fillColor=#008a00;align=center;verticalAlign=middle;whiteSpace=wrap;rounded=0;fontColor=#ffffff;fontStyle=0" parent="1" vertex="1">
                    <mxGeometry x="50" y="20" width="100" height="20" as="geometry"/>
                </mxCell>
                <mxCell id="12" value="児童福祉法" style="text;html=1;strokeColor=#001DBC;fillColor=#0050ef;align=center;verticalAlign=middle;whiteSpace=wrap;rounded=0;fontColor=#ffffff;fontStyle=0" parent="1" vertex="1">
                    <mxGeometry x="50" y="100" width="70" height="20" as="geometry"/>
                </mxCell>
                <mxCell id="21" value="" style="rounded=1;whiteSpace=wrap;html=1;arcSize=5;glass=0;" parent="1" vertex="1">
                    <mxGeometry x="450" y="50" width="210" height="300" as="geometry"/>
                </mxCell>
                <mxCell id="23" value="" style="rounded=1;whiteSpace=wrap;html=1;align=left;arcSize=18;" parent="1" vertex="1">
                    <mxGeometry x="50" y="40" width="180" height="50" as="geometry"/>
                </mxCell>
                <mxCell id="16" value="" style="rounded=1;whiteSpace=wrap;html=1;align=left;arcSize=6;" parent="1" vertex="1">
                    <mxGeometry x="50" y="120" width="180" height="370" as="geometry"/>
                </mxCell>
                <mxCell id="2" value="児童デイサービス" style="rounded=1;whiteSpace=wrap;html=1;fillColor=none;" parent="1" vertex="1">
                    <mxGeometry x="60" y="50" width="160" height="30" as="geometry"/>
                </mxCell>
                <mxCell id="3" value="知的障害通園施設" style="rounded=1;whiteSpace=wrap;html=1;" parent="1" vertex="1">
                    <mxGeometry x="60" y="130" width="160" height="30" as="geometry"/>
                </mxCell>
                <mxCell id="4" value="難聴幼児通園施設" style="rounded=1;whiteSpace=wrap;html=1;" parent="1" vertex="1">
                    <mxGeometry x="60" y="170" width="160" height="30" as="geometry"/>
                </mxCell>
                <mxCell id="5" value="肢体不自由児通園施設" style="rounded=1;whiteSpace=wrap;html=1;" parent="1" vertex="1">
                    <mxGeometry x="60" y="210" width="160" height="30" as="geometry"/>
                </mxCell>
                <mxCell id="6" value="重症心身障害児（者）&lt;br&gt;通園事業（補助事業）" style="rounded=1;whiteSpace=wrap;html=1;" parent="1" vertex="1">
                    <mxGeometry x="60" y="250" width="160" height="30" as="geometry"/>
                </mxCell>
                <mxCell id="7" value="知的障害児施設&lt;br&gt;第一種自閉症児施設（医）&lt;br&gt;第二種自閉症児施設" style="rounded=1;whiteSpace=wrap;html=1;" parent="1" vertex="1">
                    <mxGeometry x="60" y="310" width="160" height="50" as="geometry"/>
                </mxCell>
                <mxCell id="8" value="育児施設&lt;br&gt;ろうあ児施設" style="rounded=1;whiteSpace=wrap;html=1;" parent="1" vertex="1">
                    <mxGeometry x="60" y="370" width="160" height="30" as="geometry"/>
                </mxCell>
                <mxCell id="9" value="肢体不自由児施設（医）" style="rounded=1;whiteSpace=wrap;html=1;" parent="1" vertex="1">
                    <mxGeometry x="60" y="410" width="160" height="30" as="geometry"/>
                </mxCell>
                <mxCell id="10" value="重症心身障害児施設（医）" style="rounded=1;whiteSpace=wrap;html=1;" parent="1" vertex="1">
                    <mxGeometry x="60" y="450" width="160" height="30" as="geometry"/>
                </mxCell>
                <mxCell id="13" value="　平成24年の&lt;br&gt;　法改正" style="shape=singleArrow;whiteSpace=wrap;html=1;align=left;arrowWidth=0.575;arrowSize=0.38;" parent="1" vertex="1">
                    <mxGeometry x="290" y="260" width="100" height="80" as="geometry"/>
                </mxCell>
                <mxCell id="17" value="" style="shape=curlyBracket;whiteSpace=wrap;html=1;rounded=1;align=left;rotation=-180;fontColor=#000000;strokeColor=#000000;" parent="1" vertex="1">
                    <mxGeometry x="240" y="130" width="10" height="150" as="geometry"/>
                </mxCell>
                <mxCell id="18" value="通所サ｜ビス" style="text;html=1;strokeColor=none;align=center;verticalAlign=middle;whiteSpace=wrap;rounded=0;labelBackgroundColor=none;direction=west;fontColor=#000000;" parent="1" vertex="1">
                    <mxGeometry x="250" y="150" width="20" height="110" as="geometry"/>
                </mxCell>
                <mxCell id="19" value="入所サ｜ビス" style="text;html=1;strokeColor=none;align=center;verticalAlign=middle;whiteSpace=wrap;rounded=0;labelBackgroundColor=none;direction=west;fontColor=#000000;" parent="1" vertex="1">
                    <mxGeometry x="250" y="340" width="20" height="110" as="geometry"/>
                </mxCell>
                <mxCell id="20" value="" style="shape=curlyBracket;whiteSpace=wrap;html=1;rounded=1;align=left;rotation=-180;fontColor=#000000;strokeColor=#000000;" parent="1" vertex="1">
                    <mxGeometry x="240" y="310" width="10" height="170" as="geometry"/>
                </mxCell>
                <mxCell id="30" value="&lt;span&gt;児童発達支援&lt;/span&gt;" style="text;html=1;strokeColor=none;fillColor=none;align=left;verticalAlign=middle;whiteSpace=wrap;rounded=0;fontStyle=1;labelBackgroundColor=none;fontColor=#FF0000;" parent="1" vertex="1">
                    <mxGeometry x="456" y="60" width="100" height="20" as="geometry"/>
                </mxCell>
                <mxCell id="31" value="" style="group" parent="1" vertex="1" connectable="0">
                    <mxGeometry x="457" y="80" width="195" height="90" as="geometry"/>
                </mxCell>
                <mxCell id="26" value="" style="rounded=1;whiteSpace=wrap;html=1;strokeWidth=2;strokeColor=#FF0000;" parent="31" vertex="1">
                    <mxGeometry width="195" height="90" as="geometry"/>
                </mxCell>
                <mxCell id="24" value="福祉型児童発達支援センター" style="rounded=1;whiteSpace=wrap;html=1;strokeColor=#6F0000;fontStyle=1;fillColor=#FF0000;fontColor=#FFFFFF;" parent="31" vertex="1">
                    <mxGeometry x="12.5" y="10" width="170" height="30" as="geometry"/>
                </mxCell>
                <mxCell id="25" value="児童発達支援事業" style="rounded=1;whiteSpace=wrap;html=1;" parent="31" vertex="1">
                    <mxGeometry x="12.5" y="50" width="170" height="30" as="geometry"/>
                </mxCell>
                <mxCell id="32" value="" style="group" parent="1" vertex="1" connectable="0">
                    <mxGeometry x="457" y="200" width="195" height="90" as="geometry"/>
                </mxCell>
                <mxCell id="27" value="" style="rounded=1;whiteSpace=wrap;html=1;" parent="32" vertex="1">
                    <mxGeometry width="195" height="90" as="geometry"/>
                </mxCell>
                <mxCell id="28" value="医療型児童発達支援センター" style="rounded=1;whiteSpace=wrap;html=1;" parent="32" vertex="1">
                    <mxGeometry x="12.5" y="10" width="170" height="30" as="geometry"/>
                </mxCell>
                <mxCell id="29" value="指定医療機関" style="rounded=1;whiteSpace=wrap;html=1;" parent="32" vertex="1">
                    <mxGeometry x="12.5" y="50" width="170" height="30" as="geometry"/>
                </mxCell>
                <mxCell id="33" value="医療型児童発達支援" style="text;html=1;strokeColor=none;fillColor=none;align=left;verticalAlign=middle;whiteSpace=wrap;rounded=0;fontStyle=1" parent="1" vertex="1">
                    <mxGeometry x="456" y="180" width="114" height="20" as="geometry"/>
                </mxCell>
                <mxCell id="34" value="放課後等デイサービス" style="text;html=1;strokeColor=none;fillColor=none;align=left;verticalAlign=middle;whiteSpace=wrap;rounded=0;fontStyle=1" parent="1" vertex="1">
                    <mxGeometry x="456" y="300" width="123" height="20" as="geometry"/>
                </mxCell>
                <mxCell id="35" value="保育所等訪問支援" style="text;html=1;strokeColor=none;fillColor=none;align=left;verticalAlign=middle;whiteSpace=wrap;rounded=0;fontStyle=1" parent="1" vertex="1">
                    <mxGeometry x="457" y="325" width="102" height="20" as="geometry"/>
                </mxCell>
                <mxCell id="38" value="" style="rounded=1;whiteSpace=wrap;html=1;arcSize=7;glass=0;" parent="1" vertex="1">
                    <mxGeometry x="450" y="390" width="210" height="130" as="geometry"/>
                </mxCell>
                <mxCell id="40" value="&lt;b&gt;障害児入所支援&lt;/b&gt;" style="text;html=1;strokeColor=none;fillColor=none;align=left;verticalAlign=middle;whiteSpace=wrap;rounded=0;" parent="1" vertex="1">
                    <mxGeometry x="456" y="400" width="100" height="20" as="geometry"/>
                </mxCell>
                <mxCell id="41" value="" style="shape=flexArrow;endArrow=classic;html=1;strokeColor=#000000;" parent="1" edge="1">
                    <mxGeometry width="50" height="50" relative="1" as="geometry">
                        <mxPoint x="280" y="199" as="sourcePoint"/>
                        <mxPoint x="440" y="199" as="targetPoint"/>
                    </mxGeometry>
                </mxCell>
                <mxCell id="42" value="" style="shape=flexArrow;endArrow=classic;html=1;strokeColor=#000000;" parent="1" edge="1">
                    <mxGeometry width="50" height="50" relative="1" as="geometry">
                        <mxPoint x="280" y="430" as="sourcePoint"/>
                        <mxPoint x="440" y="430" as="targetPoint"/>
                    </mxGeometry>
                </mxCell>
                <mxCell id="45" value="" style="group" parent="1" vertex="1" connectable="0">
                    <mxGeometry x="460" y="420" width="195" height="90" as="geometry"/>
                </mxCell>
                <mxCell id="46" value="" style="rounded=1;whiteSpace=wrap;html=1;" parent="45" vertex="1">
                    <mxGeometry width="195" height="90" as="geometry"/>
                </mxCell>
                <mxCell id="47" value="福祉型障害児入所施設" style="rounded=1;whiteSpace=wrap;html=1;" parent="45" vertex="1">
                    <mxGeometry x="12.5" y="10" width="170" height="30" as="geometry"/>
                </mxCell>
                <mxCell id="48" value="医療型障害児入所施設" style="rounded=1;whiteSpace=wrap;html=1;" parent="45" vertex="1">
                    <mxGeometry x="12.5" y="50" width="170" height="30" as="geometry"/>
                </mxCell>
            </root>
        </mxGraphModel>
    </diagram>
</mxfile>